<svg xmlns="http://www.w3.org/2000/svg" width="133" height="33" viewBox="0 0 133 33" fill="none"><g id="logo white" clip-path="url(#clip0_817_62)"><path id="Vector" d="M43.1979 2.96765C44.8246 2.96765 47.9804 2.96765 50.3554 4.80101C52.0634 6.11054 53.072 8.38587 53.072 10.8413C53.072 14.6062 50.5669 16.1285 49.786 16.5705C51.7218 16.8815 52.8605 17.7163 53.6088 18.4038C55.3657 20.0735 55.7073 22.3488 55.7073 23.8712C55.7073 25.5736 55.2193 27.9798 53.2021 29.7805C51.0061 31.712 48.3383 32.1376 45.7843 32.1376H35.959V2.96765H43.1979ZM41.6687 15.0973H43.2955C44.1739 15.0973 47.7201 15.0154 47.7201 11.2832C47.7201 8.61504 45.6542 7.60014 43.328 7.60014H41.6687V15.0809V15.0973ZM41.6687 27.5215H44.1251C45.1824 27.5215 46.7604 27.4724 48.0292 26.7358C49.4282 25.9009 49.8348 24.5096 49.8348 23.3637C49.8348 22.447 49.5258 20.8756 47.6876 20.0408C46.4513 19.4678 45.0035 19.4678 43.7835 19.4678H41.685V27.5215H41.6687Z" fill="#20420B"></path><path id="Vector_2" d="M57.8223 7.33817C57.8223 5.60303 59.205 4.24438 61.2709 4.24438C63.3368 4.24438 64.7195 5.52119 64.7195 7.22359C64.7195 9.07331 63.3368 10.4156 61.2709 10.4156C59.205 10.4156 57.8223 9.07331 57.8223 7.3218V7.33817ZM58.5055 13.0838H64.0526V32.1703H58.5055V13.0838Z" fill="#20420B"></path><path id="Vector_3" d="M66.9556 22.7367C66.9556 16.9911 71.3965 12.9152 77.4804 12.9152C83.5643 12.9152 87.9727 16.9911 87.9727 22.7367C87.9727 28.4823 83.5643 32.5582 77.4804 32.5582C71.3965 32.5582 66.9556 28.4823 66.9556 22.7367ZM82.3605 22.7367C82.3605 19.4301 80.2621 17.4494 77.4804 17.4494C74.6987 17.4494 72.5677 19.4301 72.5677 22.7367C72.5677 26.0433 74.6987 28.024 77.4804 28.024C80.2621 28.024 82.3605 26.0433 82.3605 22.7367Z" fill="#20420B"></path><path id="Vector_4" d="M103.134 31.3632C101.995 32.1816 100.32 32.5745 98.6115 32.5745C94.0892 32.5745 91.4702 30.2664 91.4702 25.7322V17.8913H88.5259V13.6353H91.4702V8.98645H97.0173V13.6353H101.784V17.8913H97.0173V25.6667C97.0173 27.3036 97.912 28.1876 99.4086 28.1876C100.222 28.1876 101.052 27.942 101.653 27.4837L103.15 31.3796L103.134 31.3632Z" fill="#20420B"></path><path id="Vector_5" d="M104.695 7.44767C104.695 5.71253 106.078 4.35388 108.144 4.35388C110.21 4.35388 111.593 5.63068 111.593 7.33308C111.593 9.18281 110.21 10.5251 108.144 10.5251C106.078 10.5251 104.695 9.18281 104.695 7.4313V7.44767ZM105.379 13.1933H110.926V32.2798H105.379V13.1933Z" fill="#20420B"></path><path id="Vector_6" d="M113.756 22.7367C113.756 16.9911 118.197 12.9152 124.427 12.9152C128.445 12.9152 131.617 14.6503 133 17.7768L128.689 20.0849C127.664 18.2679 126.135 17.4658 124.378 17.4658C121.564 17.4658 119.368 19.4137 119.368 22.7531C119.368 26.0924 121.58 28.0403 124.378 28.0403C126.119 28.0403 127.648 27.2546 128.689 25.4213L133 27.7621C131.617 30.8067 128.445 32.591 124.427 32.591C118.197 32.591 113.756 28.515 113.756 22.7694V22.7367Z" fill="#20420B"></path><path id="Vector_7" d="M12.8347 8.26627C12.8347 8.26627 12.8347 8.21716 12.8347 8.20079C12.8022 8.00436 12.6721 7.8243 12.4931 7.69334L8.78422 5.25433C8.47514 5.0579 8.0522 5.09064 7.79192 5.35254L5.88867 7.20227C5.75853 7.31685 5.59586 7.3987 5.41692 7.43144L3.3022 7.67697C3.04192 7.70971 2.79792 7.87341 2.68405 8.10257L1.46401 10.5416C1.38268 10.6889 1.36641 10.8526 1.39895 11.0327L1.57788 12.113L1.69175 12.8005L1.74055 13.0625L1.78936 13.308C1.78936 13.308 1.78936 13.3898 1.80562 13.4226L1.83816 13.6517L1.87069 13.8482C1.87069 13.8482 1.88696 13.9628 1.90323 14.0119C1.90323 14.0773 1.93576 14.1428 1.95203 14.2083C2.0659 14.5684 2.3099 14.8794 2.65151 15.0595C2.81418 15.125 3.87155 15.5015 4.73371 15.8125L4.94518 15.8943C4.94518 15.8943 5.05905 15.9434 5.12412 15.9598C5.18918 15.9762 5.25425 16.0089 5.31932 16.0253C5.38439 16.0417 5.43319 16.058 5.48199 16.0744L5.5796 16.1071L5.726 16.1562L5.8236 16.189C6.05134 16.2708 6.21401 16.2872 6.32788 16.2872H6.34415C6.34415 16.2872 6.36042 16.2872 6.37668 16.2872C6.40922 16.2872 6.44175 16.2872 6.47429 16.2708L9.49997 14.7157C9.56504 14.6666 9.61384 14.6175 9.64638 14.5684C9.74398 14.4211 9.77651 14.3229 9.82532 14.061C9.82532 14.0282 9.82532 13.9791 9.84158 13.93C9.84158 13.93 9.84158 13.93 9.84158 13.9137C9.84158 13.8645 9.84158 13.7991 9.85785 13.7336C9.87412 13.5372 9.89038 13.3244 9.93919 13.1443C9.93919 13.1443 9.93919 13.1443 9.93919 13.1279C9.93919 13.0625 9.95545 13.0133 9.98799 12.9642C9.98799 12.9642 9.98799 12.9479 9.98799 12.9315C10.0043 12.8497 10.0531 12.8005 10.0856 12.7514C10.1669 12.6369 10.2808 12.555 10.4109 12.4895H10.4435C10.4435 12.4895 10.476 12.4568 10.5085 12.4568C10.5736 12.4241 10.72 12.3749 10.8827 12.3095C10.9315 12.2931 10.9803 12.2604 11.0453 12.244C11.143 12.2113 11.2243 12.1621 11.3056 12.1294C11.3544 12.113 11.387 12.0967 11.4358 12.0803C11.452 12.0803 11.4683 12.0639 11.5008 12.0639C11.5334 12.0639 11.5659 12.0476 11.5822 12.0312C11.5822 12.0312 11.6147 12.0148 11.631 11.9985C11.631 11.9985 11.6472 11.9985 11.6635 11.9821C11.696 11.9657 11.7286 11.9493 11.7611 11.9166C11.7936 11.8839 11.8424 11.8511 11.875 11.8184C11.9075 11.7693 11.9563 11.7202 11.9726 11.6711C11.9726 11.6711 11.9726 11.6711 11.9726 11.6383C12.0051 11.5237 12.119 11.1145 12.2654 10.6398C12.2817 10.5743 12.2979 10.5089 12.3305 10.427L12.3955 10.1815C12.4281 10.0833 12.4443 10.0014 12.4769 9.90319C12.6721 9.19931 12.8347 8.56091 12.8347 8.56091C12.8347 8.56091 12.8347 8.54454 12.8347 8.52817C12.8347 8.52817 12.8347 8.49544 12.8347 8.47907C12.8347 8.47907 12.8347 8.47907 12.8347 8.4627C12.8347 8.42996 12.8347 8.39722 12.8347 8.36448C12.8347 8.33174 12.8347 8.29901 12.8347 8.26627ZM4.42463 13.0625C4.32703 13.308 4.06675 13.5535 3.79021 13.5699C3.36727 13.5699 3.09073 12.9642 3.00939 12.7842C2.94432 12.6369 2.68405 12.0639 2.92805 11.5237C3.12326 11.1309 3.36727 11.2291 3.64381 10.7708C3.87155 10.3943 3.74141 10.2633 4.01795 9.77224C4.16436 9.51033 4.31076 9.26479 4.60357 9.15021C4.65237 9.13384 4.99398 9.00288 5.20545 9.15021C5.54706 9.36301 5.43319 10.0178 5.31932 10.3779C5.23799 10.5907 5.20545 10.5743 4.70117 11.4583C4.45716 11.8839 4.42463 11.9493 4.40836 12.0148C4.29449 12.4895 4.55477 12.7023 4.40836 13.0625H4.42463ZM8.99569 13.8809C8.75169 14.4047 8.1986 14.6175 7.75939 14.7812C7.09244 15.0431 7.0599 14.7812 6.11641 15.0759C5.83987 15.1577 5.54706 15.2723 5.14038 15.2068C5.01025 15.1905 4.6361 15.1413 4.55477 14.9285C4.47343 14.7157 4.71744 14.4702 4.89638 14.241C5.69347 13.2261 5.22172 12.5386 5.98627 11.7529C6.13268 11.6056 6.52309 11.2127 7.10871 11.18C8.01966 11.1309 8.63782 12.0312 8.71915 12.1458C8.80049 12.2767 9.3373 13.1116 8.99569 13.8645V13.8809ZM10.1995 9.91956C10.0043 10.1651 9.71144 10.3615 9.66264 10.7708C9.63011 10.9999 9.69518 11.1964 9.56504 11.3928C9.56504 11.4092 9.3861 11.6547 9.17463 11.6547C8.88182 11.6547 8.70288 11.2455 8.63781 11.1145C8.49141 10.8035 8.60528 10.738 8.47514 10.4434C8.29621 10.0178 7.88953 9.80497 7.80819 9.75587C7.48285 9.59217 7.38525 9.57581 7.22258 9.46122C6.8159 9.13384 6.8647 7.69334 7.88953 7.08768C8.70288 6.61297 9.84158 6.89125 10.3296 7.57876C10.8176 8.26627 10.6224 9.36301 10.1832 9.91956H10.1995ZM21.8467 7.87341L21.0984 6.43291C21.0171 6.28559 20.8707 6.18737 20.708 6.17101L17.0154 5.79451C16.9178 5.79451 16.8364 5.79451 16.7388 5.84362L13.0787 7.66061C12.8673 7.75882 12.7697 7.98799 12.8185 8.20079C12.8185 8.21716 12.8185 8.2499 12.8185 8.26627C12.8185 8.29901 12.8185 8.33174 12.8185 8.36448C12.8185 8.39722 12.8185 8.42996 12.8185 8.4627C12.8185 8.4627 12.8185 8.4627 12.8185 8.47907C12.8185 8.49544 12.8185 8.51181 12.8185 8.52817C12.8185 8.52817 12.8185 8.54454 12.8185 8.56091C12.8185 8.56091 12.6395 9.19931 12.4606 9.90319C12.4281 10.0014 12.4118 10.0833 12.3793 10.1815L12.3142 10.427C12.3142 10.427 12.2817 10.5743 12.2491 10.6398L12.0214 11.5074C12.0214 11.5074 11.9888 11.6056 11.9563 11.6547C11.9563 11.6547 11.9563 11.6711 11.9563 11.6874C11.94 11.7365 11.8912 11.7857 11.8587 11.8348C11.8262 11.8675 11.7774 11.9002 11.7448 11.933C11.7123 11.9493 11.6798 11.9821 11.6472 11.9985C11.6472 11.9985 11.631 11.9985 11.6147 12.0148C11.5984 12.0148 11.5822 12.0312 11.5659 12.0312C11.5659 12.0312 11.5171 12.0476 11.4846 12.0639C11.4683 12.0639 11.452 12.0803 11.4195 12.0803C11.387 12.0967 11.3382 12.113 11.2894 12.1294C11.208 12.1621 11.1267 12.1949 11.0291 12.244C10.9803 12.2604 10.9152 12.2931 10.8664 12.3095C10.7037 12.3749 10.5573 12.4404 10.4923 12.4568C10.476 12.4568 10.4435 12.4732 10.4272 12.4895C10.2971 12.555 10.232 12.6041 10.0693 12.7514C10.0693 12.7514 9.98799 12.866 9.97172 12.9315C9.97172 12.9315 9.97172 12.9479 9.97172 12.9642C9.95545 13.0133 9.93919 13.0788 9.92292 13.1279C9.92292 13.1279 9.92292 13.1279 9.92292 13.1443L9.84158 13.7336C9.84158 13.7336 9.84158 13.8645 9.82532 13.9137C9.82532 13.9137 9.82532 13.9137 9.82532 13.93C9.82532 13.9791 9.82532 14.0282 9.80905 14.061V14.1919C9.77651 14.3229 9.72771 14.4538 9.63011 14.5684C9.63011 14.5684 9.63011 14.5684 9.63011 14.5848C9.61384 14.6175 9.56504 14.6666 9.51624 14.6994C9.48371 14.7157 9.45117 14.7485 9.4349 14.7812C9.35357 14.8958 9.32103 15.0268 9.3373 15.1741C9.3373 15.2068 9.35357 15.2396 9.35357 15.2396C9.36984 15.305 9.40237 15.3541 9.45117 15.4033L11.7936 18.2188C11.7936 18.2188 11.875 18.3006 11.9238 18.317C11.9238 18.317 11.9563 18.3333 11.9726 18.3497C12.0051 18.3497 12.0376 18.3661 12.0702 18.3825C12.0864 18.3825 12.1027 18.3825 12.119 18.3825C12.1678 18.3825 12.2166 18.3825 12.2654 18.3825C12.2979 18.3825 12.3142 18.3825 12.3142 18.3825L12.5094 18.3333L17.3407 17.1711C17.3407 17.1711 17.357 17.1711 17.3895 17.1548C17.4871 17.122 17.5522 17.0729 17.6173 16.9911C17.6498 16.9583 17.6661 16.9092 17.6823 16.8601C17.6823 16.8601 17.6823 16.8601 17.6823 16.8437C17.7149 16.7455 17.7149 16.6473 17.6823 16.5491C17.6823 16.5491 16.869 14.0119 16.8039 13.7827C16.7714 13.6681 16.7714 13.5535 16.8202 13.4389C16.8202 13.4389 16.869 13.308 16.9503 13.1116L17.0154 12.9642C17.0642 12.8497 17.113 12.7351 17.1781 12.6041L17.2594 12.4077C17.3245 12.2767 17.3733 12.1458 17.4221 12.0148L17.5359 11.7365C17.6498 11.4746 17.7311 11.2618 17.7637 11.18C17.7637 11.1473 17.7962 11.1145 17.8125 11.0981C17.8613 11.0327 17.9101 10.9836 17.9589 10.9508C17.9751 10.9508 17.9914 10.9345 18.0077 10.9181C18.0239 10.9181 18.0402 10.9017 18.0727 10.9017H18.1053H18.1215H18.1541C18.3493 10.869 19.4717 10.6725 20.2851 10.5252L20.6267 10.4597C20.8707 10.427 21.0659 10.3779 21.1472 10.3779C21.1798 10.3779 21.196 10.3779 21.2286 10.3615C21.2448 10.3615 21.2774 10.3452 21.2936 10.3288C21.3099 10.3288 21.3424 10.3124 21.3587 10.2961C21.375 10.2961 21.3912 10.2633 21.4238 10.2469C21.4238 10.2469 21.44 10.2306 21.4563 10.2142C21.5051 10.1487 21.5539 10.0669 21.5702 9.98504L21.863 8.16805C21.8793 8.06984 21.863 7.95525 21.8142 7.85704L21.8467 7.87341ZM16.2996 15.8943C16.1044 16.2053 15.8442 16.189 14.6404 16.5327C13.3878 16.8929 13.1113 17.0729 12.6558 16.9092C12.3793 16.811 12.2003 16.6309 11.8587 16.2708C11.5334 15.9434 10.5573 14.9122 10.8664 14.1428C10.8664 14.1101 10.9315 13.9791 11.1267 13.7991C11.94 12.997 13.3065 13.1279 13.583 13.1607C14.0548 13.2098 15.6652 13.3571 16.2346 14.5357C16.2834 14.6339 16.625 15.3705 16.2996 15.9107V15.8943ZM16.69 10.6398C16.5274 11.6383 15.5351 12.3749 14.559 12.1621C13.5017 11.9493 12.9161 10.7217 13.2577 9.7395C13.518 8.97014 14.3313 8.38085 15.2097 8.49544C16.1858 8.64276 16.869 9.64128 16.7063 10.6234L16.69 10.6398ZM20.5128 8.98651C20.4315 9.28116 20.22 9.44485 20.0248 9.59217C19.3904 10.0833 18.6421 10.0014 18.4632 9.96867C18.1541 9.91956 17.7962 9.87045 17.5359 9.60854C16.9503 9.00288 17.1618 7.44781 18.0402 7.07131C18.8048 6.74393 19.6669 7.46417 19.7971 7.57876C19.9272 7.69334 20.6755 8.31537 20.4965 8.97014L20.5128 8.98651ZM12.5257 21.5745C12.4769 21.4271 12.0702 20.314 12.0702 20.314C12.0702 20.314 12.0702 20.2813 12.0702 20.2649C12.0702 20.2649 12.0702 20.2485 12.0702 20.2322C12.0702 20.2158 12.0702 20.1831 12.0539 20.1503C12.0376 20.0521 12.0376 19.9212 12.0539 19.7738L12.2979 18.6116L12.3305 18.4152C12.3305 18.4152 12.3142 18.4152 12.2817 18.4152C12.2329 18.4152 12.184 18.4152 12.1352 18.4152C12.119 18.4152 12.1027 18.4152 12.0864 18.4152C12.0539 18.4152 12.0214 18.3988 11.9888 18.3825C11.9726 18.3825 11.9563 18.3825 11.94 18.3497C11.8099 18.2515 9.3861 15.2559 9.3861 15.2559C9.3861 15.2559 9.3861 15.2396 9.36984 15.1905C9.35357 15.1086 9.3373 14.9449 9.46744 14.7976C9.48371 14.7649 9.51624 14.7485 9.54877 14.7157H9.53251C9.53251 14.7157 9.45117 14.7812 9.40237 14.814L6.62069 16.2381C6.62069 16.2381 6.53936 16.2708 6.50682 16.2872C6.50682 16.2872 6.50682 16.2872 6.49055 16.3036C6.31162 16.3854 6.19775 16.5655 6.19775 16.7455V16.7619V21.378C6.19775 21.5253 6.23028 21.6563 6.31162 21.7873L8.49141 25.2412C8.58901 25.4049 8.76795 25.5031 8.94689 25.5031H10.1019C10.232 25.5031 10.3621 25.4703 10.476 25.4212L12.0539 24.6682C12.2491 24.57 12.3793 24.3736 12.3793 24.1444C12.3793 24.1444 12.3793 24.1281 12.3793 24.1117C12.3793 24.0298 12.3793 23.8825 12.363 23.7188L12.2817 22.4748C12.2817 22.4748 12.2817 22.4257 12.2817 22.3929C12.2817 22.3929 12.2817 22.3929 12.2817 22.3765C12.2817 22.2947 12.3305 22.2129 12.3793 22.1474L12.4443 22.0655C12.4443 22.0655 12.4769 22.0164 12.4931 21.9837C12.5094 21.9673 12.5257 21.9346 12.5257 21.9018C12.5582 21.7873 12.5582 21.6727 12.5257 21.5581V21.5745ZM7.17377 17.9896C7.19004 17.5967 7.40151 17.0402 7.87326 16.8274C8.23114 16.6637 8.60528 16.7455 8.78422 16.7946C9.58131 17.0074 10.6387 17.875 10.3947 18.7753C10.232 19.3973 9.49997 19.8393 8.83302 19.8066C7.85699 19.7902 7.12497 18.8244 7.17377 17.9896ZM10.2157 23.9644C10.1181 23.9971 9.35357 24.1935 8.67035 23.7188C8.55648 23.637 8.08473 23.2932 7.9546 22.6712C7.90579 22.4748 7.80819 22.0001 8.06847 21.6399C8.34501 21.2634 8.83302 21.2307 9.77651 21.198C10.5248 21.1652 10.8989 21.1489 11.208 21.4271C11.5822 21.7545 11.5822 22.2783 11.5822 22.3765C11.5822 23.1132 10.9477 23.7843 10.232 23.9971L10.2157 23.9644ZM19.488 21.2962C19.488 21.2962 19.488 21.2471 19.488 21.2143V21.1325C19.488 21.1325 19.4717 21.0834 19.4717 21.067L19.4392 20.8869L19.4067 20.7069C19.4067 20.7069 19.4067 20.625 19.3904 20.5923L19.3578 20.3468L19.2765 19.8066C19.2765 19.8066 19.2765 19.7084 19.2602 19.6593L19.1952 19.25C19.1952 19.25 19.1789 19.1354 19.1626 19.0863L19.1301 18.8572C19.065 18.3988 19.0162 18.0714 19.0162 18.0714C19.0162 18.0714 19.0162 18.0223 18.9837 17.9569C18.9837 17.9405 18.9837 17.9077 18.9512 17.875C18.9512 17.8586 18.9349 17.8423 18.9186 17.8259C18.9024 17.7932 18.8698 17.7441 18.8373 17.6949C18.821 17.6786 18.8048 17.6622 18.7885 17.6295C18.756 17.5967 18.7234 17.5804 18.6909 17.5476L18.5608 17.4494L18.4144 17.3512L17.9589 17.0402L17.6986 16.8601C17.6986 16.8601 17.6986 16.8601 17.6986 16.8765C17.6823 16.9256 17.6661 16.9747 17.6335 17.0074C17.5685 17.0893 17.4709 17.1384 17.4058 17.1711C17.3733 17.1711 17.357 17.1875 17.357 17.1875L12.5257 18.3497C12.4118 18.3825 12.3142 18.4807 12.2979 18.5953L12.0539 19.7575C12.0214 19.9048 12.0214 20.0357 12.0539 20.134C12.0539 20.1667 12.0539 20.1831 12.0702 20.2158C12.0702 20.2322 12.0702 20.2485 12.0702 20.2485C12.0702 20.2649 12.0702 20.2813 12.0702 20.2977C12.0702 20.2977 12.4606 21.4108 12.5257 21.5581C12.5582 21.6727 12.5745 21.7873 12.5257 21.9018C12.5257 21.9346 12.5094 21.9509 12.4931 21.9837C12.4931 22.0001 12.4606 22.0328 12.4443 22.0655C12.3467 22.1965 12.2979 22.3274 12.2817 22.3765C12.2817 22.3765 12.2817 22.3765 12.2817 22.3929C12.2817 22.4911 12.3305 23.2277 12.363 23.7188C12.363 23.8989 12.3793 24.0462 12.3793 24.1117C12.3793 24.1117 12.3793 24.1281 12.3793 24.1444C12.3793 24.4227 12.2979 24.4391 12.2979 24.4391L14.6892 26.5507C14.8681 26.7144 15.1121 26.7962 15.3561 26.7962H16.625C16.625 26.7962 16.69 26.7962 16.7226 26.7962C16.7714 26.7962 16.8039 26.7962 16.8527 26.7799C16.9015 26.7799 16.934 26.7471 16.9666 26.7308C16.9666 26.7308 16.9666 26.7308 16.9828 26.7308C17.0154 26.7308 17.0317 26.698 17.0642 26.6817C17.0642 26.6817 17.1618 26.5998 17.1943 26.5671C17.1943 26.5671 17.2269 26.5343 17.2431 26.5016C17.2431 26.5016 18.6746 24.4227 18.8048 24.2426C18.821 24.2099 18.8373 24.1935 18.8536 24.1608C18.8698 24.1281 18.8861 24.0789 18.9024 24.0462C18.9349 23.9971 18.9349 23.948 18.9349 23.9316C18.9349 23.9316 18.9349 23.9316 18.9349 23.9153L19.1952 22.8185L19.4717 21.6563C19.488 21.5745 19.5043 21.4926 19.5043 21.4108C19.5043 21.378 19.5043 21.3453 19.5043 21.3125L19.488 21.2962ZM18.1215 22.5566C18.0565 22.8021 17.8775 22.8185 17.6661 23.1295C17.4871 23.3751 17.4709 23.5715 17.3733 23.8661C17.1943 24.4882 17.0317 25.012 16.69 25.3394C16.2834 25.7159 15.6489 25.7977 15.1935 25.6995C14.0873 25.4703 13.2251 24.1117 13.583 23.2441C13.8108 22.6876 14.559 22.3111 15.1447 22.2783C15.47 22.2783 15.7303 22.3602 16.2834 22.2456C16.625 22.1801 16.9015 22.0819 16.9015 22.0819C17.4871 21.8527 17.601 21.6236 17.8125 21.689C18.0565 21.7709 18.2192 22.2129 18.1215 22.5402V22.5566ZM17.8775 20.4286C16.9666 21.2143 15.3073 20.1176 14.3801 20.8215C14.2825 20.9033 14.006 21.1161 13.7457 21.0506C13.5993 21.0179 13.4692 20.8869 13.4366 20.7396C13.339 20.4286 13.6644 20.1503 13.6969 20.1176C13.9084 19.9375 14.071 20.003 14.3476 19.8721C14.7055 19.7084 14.8031 19.4301 14.9983 19.1845C15.5351 18.5625 16.6738 18.3825 17.4383 18.7262C17.5197 18.7589 18.2192 19.0863 18.268 19.6265C18.3005 20.0521 17.9263 20.3959 17.8938 20.4122L17.8775 20.4286ZM26.4178 13.1607L25.702 10.8526C25.637 10.6398 25.458 10.4925 25.2465 10.4597L21.9931 10.0505C21.8142 10.0341 21.619 10.0833 21.5051 10.2306C21.5051 10.2306 21.4888 10.2469 21.4726 10.2633C21.4563 10.2797 21.44 10.2961 21.4075 10.3124C21.3912 10.3288 21.375 10.3452 21.3424 10.3452C21.3262 10.3452 21.2936 10.3615 21.2774 10.3779C21.2611 10.3779 21.2286 10.3943 21.196 10.3943C21.1147 10.3943 20.9358 10.4434 20.6755 10.4761L20.3339 10.5416C19.5205 10.6725 18.3981 10.869 18.2029 10.9017H18.1703C18.1703 10.9017 18.1703 10.9017 18.1541 10.9017C18.1378 10.9017 18.1215 10.9017 18.1215 10.9017C18.1053 10.9017 18.089 10.9017 18.0565 10.9181C18.0402 10.9181 18.0239 10.9345 18.0077 10.9508C17.9589 10.9836 17.9101 11.0327 17.8613 11.0981C17.845 11.1309 17.8287 11.1473 17.8125 11.18C17.7799 11.2618 17.6986 11.4583 17.5847 11.7365L17.4709 12.0148C17.4221 12.1458 17.357 12.2767 17.3082 12.4077L17.2269 12.6041C17.1781 12.7351 17.113 12.8497 17.0642 12.9642L16.9991 13.1116C16.9178 13.308 16.869 13.4389 16.869 13.4389C16.869 13.4389 16.7876 13.5535 16.8527 13.7827C16.9178 14.0119 17.7311 16.5491 17.7311 16.5491C17.7311 16.5491 17.7474 16.5982 17.7474 16.6473C17.7637 16.7946 17.845 16.942 17.9751 17.0238L18.4306 17.3348C18.577 17.4494 18.7722 17.4658 18.9512 17.4003C18.9674 17.4003 19 17.3839 19.0162 17.3676C19.2602 17.2366 19.7483 16.9747 19.7483 16.9747C19.7483 16.9747 19.7808 16.9583 19.8296 16.942C19.8296 16.942 19.8459 16.942 19.8621 16.942C19.9435 16.9256 25.0188 15.6324 25.0188 15.6324C25.0188 15.6324 25.0351 15.6324 25.0513 15.6324H25.0676C25.0839 15.6324 25.1001 15.6324 25.1164 15.6161C25.214 15.5669 25.3116 15.4851 25.3604 15.3869L26.369 13.6026C26.4503 13.4717 26.4666 13.308 26.4178 13.1607ZM20.8056 14.9285C20.7406 15.1086 20.5453 15.6979 20.0085 15.8616C19.3741 16.0417 18.8048 15.4687 18.7397 15.4033C18.2354 14.8958 18.2517 14.2247 18.268 14.0119C18.2842 13.8154 18.3493 13.0297 18.9349 12.7514C19.488 12.5059 20.1224 12.8824 20.4315 13.1934C20.9195 13.6845 20.9683 14.4047 20.8056 14.9285ZM25.1815 13.2261C25.0188 14.0773 24.1567 14.3884 24.1078 14.4047C23.4734 14.6175 22.8065 14.3884 22.3835 13.9628C21.863 13.4226 21.9118 12.7351 21.9118 12.6532C21.9118 12.5223 21.9606 12.0476 22.3185 11.7038C22.8715 11.1636 23.8964 11.18 24.5471 11.7038C24.6121 11.7529 25.3442 12.3586 25.1815 13.2425V13.2261ZM28.2072 17.2039L25.8484 15.6979C25.637 15.5669 25.3767 15.5342 25.1327 15.6161C25.1164 15.6161 25.1001 15.6161 25.0839 15.6324H25.0676C25.0676 15.6324 25.0513 15.6324 25.0351 15.6324C25.0351 15.6324 19.9597 16.9256 19.8784 16.942H19.8459C19.8133 16.942 19.7808 16.9583 19.7645 16.9747C19.7645 16.9747 19.2765 17.2366 19.0325 17.3676C19.0162 17.3676 18.9837 17.3839 18.9674 17.4003C18.7885 17.4821 18.6421 17.4494 18.6096 17.433L18.7397 17.5313C18.7397 17.5313 18.8048 17.5804 18.8373 17.6131C18.8536 17.6295 18.8698 17.6458 18.8861 17.6786C18.9186 17.7277 18.9512 17.7604 18.9674 17.8095C18.9674 17.8259 18.9837 17.8423 19 17.8586C19 17.875 19.0162 17.9077 19.0325 17.9405C19.0488 18.006 19.065 18.0551 19.065 18.0551C19.065 18.0551 19.1138 18.3825 19.1789 18.8408L19.2114 19.07C19.2114 19.07 19.2277 19.1845 19.244 19.2337L19.309 19.6429C19.309 19.6429 19.309 19.7411 19.3253 19.7902C19.3578 19.9703 19.3904 20.1667 19.4067 20.3304L19.4392 20.5759C19.4392 20.5759 19.4392 20.6578 19.4555 20.6905L19.488 20.8706L19.5205 21.0506C19.5205 21.0506 19.5205 21.0997 19.5205 21.1161V21.198C19.5205 21.198 19.5368 21.2634 19.5368 21.2798C19.5368 21.3125 19.5368 21.3453 19.5368 21.378C19.5368 21.5253 19.5205 21.6072 19.5043 21.6236L19.2277 22.7858C19.2277 22.7858 22.107 26.7144 22.2859 26.9599C22.4161 27.14 22.595 27.2546 22.8065 27.2873H22.839L23.5873 27.4346L23.9452 27.5001C24.3356 27.5656 24.726 27.3855 24.9212 27.0418L26.8733 23.5224C26.9709 23.3423 27.0197 23.1459 27.0197 22.9495V21.9346C27.0197 21.5745 27.1335 21.2471 27.345 20.9688L28.4186 19.5774C28.565 19.3973 28.6464 19.1682 28.6464 18.9226V17.9569C28.6464 17.6458 28.4837 17.3512 28.2234 17.1711L28.2072 17.2039ZM20.4315 20.8706C20.0899 20.1667 20.3664 19.4792 20.5128 19.1027C20.643 18.7589 20.9195 18.0551 21.5051 17.9569C21.9443 17.875 22.3185 18.1697 22.3835 18.2188C23.1969 18.8408 23.1806 20.3468 22.6275 21.2634C22.4974 21.4762 22.3347 21.7381 22.0257 21.8364C21.4563 22.0164 20.7243 21.4762 20.4315 20.8869V20.8706ZM24.2055 26.0105C23.8801 26.1251 23.5548 26.0269 23.3108 25.9614C22.4974 25.6995 22.1233 25.012 22.0745 24.9301C22.0094 24.8156 21.4238 23.7025 22.0745 22.9495C22.5625 22.3765 23.4572 22.3438 24.059 22.6548C25.0188 23.1295 25.0513 24.2754 25.0513 24.4063C25.0513 24.9465 24.8399 25.7977 24.2055 26.0269V26.0105ZM26.2714 19.5938C26.2388 19.9375 26.1575 20.625 25.6207 20.9361C25.5719 20.9524 25.1327 21.198 24.6609 20.9852C24.2055 20.7887 24.0753 20.3304 24.059 20.2649C23.9777 19.9703 24.1078 19.9048 24.1241 19.3319C24.1241 18.9554 24.0753 18.9226 24.059 18.4316C24.059 17.9569 24.059 17.7113 24.1567 17.564C24.4007 17.2366 25.0351 17.1711 25.4743 17.3839C26.2876 17.7604 26.3364 18.9881 26.2714 19.5938ZM24.3356 29.9555L23.994 27.893C23.9614 27.6802 23.7988 27.5165 23.5873 27.4674L22.839 27.3364C22.839 27.3364 22.8065 27.3364 22.7739 27.3201C22.6763 27.2873 22.4323 27.1891 22.2859 27.009C22.107 26.7635 19.2277 22.8349 19.2277 22.8349L18.9674 23.9316C18.9674 23.9316 18.9674 23.9316 18.9674 23.948C18.9674 23.9644 18.9674 24.0135 18.9349 24.0626C18.9186 24.0953 18.9024 24.1444 18.8861 24.1772C18.8861 24.1935 18.8536 24.2263 18.8373 24.259C18.7072 24.4391 17.2757 26.518 17.2757 26.518C17.2757 26.5343 17.2431 26.5507 17.2269 26.5671C17.2269 26.5671 17.1455 26.6489 17.0967 26.6817C17.0967 26.6817 17.0479 26.7144 17.0154 26.7308C17.0154 26.7308 17.0154 26.7308 16.9991 26.7308C16.9666 26.7471 16.9178 26.7635 16.8852 26.7799C16.8527 26.7799 16.8039 26.7962 16.7551 26.7962C16.7226 26.7962 16.69 26.7962 16.6575 26.7962H16.1858C15.6977 26.7962 15.2585 27.0745 15.0471 27.5165L13.0625 31.6743C12.9161 31.9853 13.1113 32.3618 13.4529 32.4109C15.1772 32.6728 19.8459 33.0657 24.1078 30.4466C24.2868 30.332 24.3844 30.1192 24.3519 29.9064L24.3356 29.9555ZM19.0488 31.1505C18.3005 32.2145 16.4298 32.0344 15.5513 31.1996C15.4537 31.1013 14.9657 30.643 14.982 30.0046C14.9983 29.0552 16.1207 28.2858 17.1293 28.1876C17.3245 28.1713 18.2517 28.0894 18.8698 28.7605C19.4717 29.4317 19.488 30.4957 19.0325 31.1505H19.0488ZM19.4392 28.2367C18.9024 27.9093 18.512 27.3037 18.5282 26.6325C18.5445 26.0105 18.9186 25.2248 19.5043 25.1266C19.9272 25.0611 20.2851 25.3394 20.4315 25.454C21.3262 26.1578 21.7491 27.762 21.131 28.3186C20.708 28.6951 19.9109 28.515 19.4229 28.2204L19.4392 28.2367ZM20.6592 30.6757C20.4477 30.4138 20.7568 29.5626 21.4238 29.268C21.863 29.0716 22.4323 29.1207 22.7739 29.4317C22.8715 29.5135 22.9529 29.5954 22.9692 29.6936C23.0017 30.2501 21.0171 31.085 20.6755 30.6757H20.6592ZM6.45802 16.3036C6.45802 16.3036 6.42549 16.3036 6.39295 16.3036C6.39295 16.3036 6.37668 16.3036 6.36042 16.3036H6.34415C6.23028 16.3036 6.11641 16.3036 6.00254 16.2708L5.83987 16.2053L5.74227 16.1726L5.59586 16.1235L5.49826 16.0908L5.33559 16.0417C5.33559 16.0417 5.20545 15.9925 5.14038 15.9762C5.07531 15.9598 5.02651 15.9271 4.96144 15.9107L4.74997 15.8289L2.86299 15.1577C2.86299 15.1577 2.73285 15.1086 2.66778 15.0759C2.60271 15.0595 2.14723 14.8467 1.96829 14.2247C1.95203 14.1592 1.93576 14.0937 1.91949 14.0282C1.91949 13.9791 1.90323 13.9137 1.88696 13.8645L1.85442 13.6681L1.82189 13.4389C1.82189 13.4389 1.82189 13.3571 1.80562 13.3244L1.75682 13.0788L1.70802 12.8169L1.59415 12.1294C1.48028 11.4583 1.38268 10.8853 1.38268 10.8853C1.38268 10.8853 -1.56167 16.8601 1.91949 24.0298L6.19775 21.3944V16.7783C6.19775 16.7783 6.19775 16.7783 6.19775 16.7619C6.19775 16.6964 6.26281 16.4345 6.50682 16.3036H6.45802ZM3.43234 21.7054C2.97686 22.1474 2.19603 21.8855 1.85442 21.4599C1.78936 21.378 1.61042 21.1652 1.65922 20.9033C1.75682 20.3304 2.92805 19.8229 3.43234 20.2813C3.77394 20.5923 3.83901 21.3125 3.43234 21.689V21.7054ZM5.27052 18.0878C5.14038 18.6116 4.55477 18.939 4.11555 19.0209C2.63525 19.3319 0.797061 17.5476 1.05734 16.7292C1.26881 16.058 3.04192 15.7306 4.19689 16.4181C4.6849 16.7128 5.43319 17.4003 5.27052 18.0878Z" fill="url(#paint0_linear_817_62)"></path><path id="Vector_8" d="M1.88694 14.0282L1.38266 11.0327C1.35013 10.869 1.38266 10.6889 1.44773 10.5416L2.66776 8.10257C2.78163 7.85704 3.02564 7.69334 3.28591 7.67697L5.40064 7.43144C5.57958 7.41507 5.74225 7.33322 5.87239 7.20227L7.77564 5.35254C8.03591 5.09064 8.45886 5.0579 8.76793 5.25433L12.4768 7.69334C12.7696 7.88977 12.8998 8.23353 12.8022 8.56091L12.0051 11.491C11.94 11.7202 11.7774 11.9166 11.5496 12.0148L10.4272 12.4895C10.1669 12.6041 9.98797 12.8333 9.95543 13.1279L9.8253 14.2083C9.79276 14.4702 9.63009 14.6994 9.40235 14.814L6.62067 16.2381C6.42547 16.3363 6.19773 16.3527 5.98626 16.2708L2.8467 15.1577C2.34242 14.9777 1.98454 14.5521 1.88694 14.0282ZM12.8184 8.20079C12.851 8.39722 12.8184 8.57728 12.8184 8.57728C12.8184 8.57728 12.0376 11.4746 11.9563 11.6711C11.8912 11.8348 11.696 11.9493 11.6147 11.9985C11.5984 11.9985 11.5821 12.0148 11.5659 12.0312C11.4195 12.0967 10.6875 12.4077 10.5248 12.4732C10.3458 12.555 10.2808 12.5877 10.1018 12.7678C9.9229 12.9479 9.89037 13.5863 9.84156 13.9628C9.79276 14.3393 9.76023 14.4375 9.64636 14.6175C9.61382 14.6666 9.58129 14.6994 9.53249 14.7321C9.32102 14.8958 9.28848 15.2232 9.46742 15.436L11.8099 18.2515C11.9238 18.3988 12.119 18.4643 12.2979 18.4152L17.3244 17.1875C17.601 17.122 17.7637 16.8274 17.6823 16.5655L16.8039 13.7991C16.7714 13.6845 16.7714 13.5699 16.8039 13.4553L17.7637 11.1964C17.8287 11.049 17.9751 10.9345 18.1378 10.9017L21.1472 10.3779C21.3587 10.3452 21.5214 10.1815 21.5539 9.96867L21.8467 8.15168C21.863 8.05347 21.8467 7.93888 21.7979 7.84067L21.0496 6.40017C20.9683 6.25285 20.8219 6.15464 20.6592 6.13827L16.9666 5.76177C16.869 5.76177 16.7876 5.76177 16.69 5.81088L13.0299 7.62787C12.8347 7.72608 12.7208 7.95525 12.7696 8.16805L12.8184 8.20079ZM6.14893 16.7783V21.3944C6.14893 21.5417 6.18146 21.6727 6.2628 21.8036L8.44259 25.2575C8.54019 25.4212 8.71913 25.5031 8.89807 25.5031H10.053C10.1832 25.5031 10.3133 25.4703 10.4272 25.4212L12.0051 24.6682C12.2166 24.57 12.3467 24.3572 12.3304 24.1117L12.2328 22.4584C12.2328 22.3438 12.2654 22.2292 12.3304 22.131L12.3955 22.0492C12.5094 21.9182 12.5419 21.7218 12.4768 21.5581L12.0214 20.2977C11.9563 20.134 11.94 19.9375 11.9888 19.7575L12.2816 18.3825C12.2816 18.3825 12.0376 18.4316 11.9075 18.3333C11.7774 18.2351 9.35355 15.2396 9.35355 15.2396C9.35355 15.2396 9.20715 14.9285 9.51622 14.7157L6.47427 16.2708C6.47427 16.2708 6.47427 16.2708 6.44174 16.2708C6.2628 16.3527 6.13266 16.5327 6.13266 16.7455L6.14893 16.7783ZM17.3407 17.2039L12.5094 18.3825C12.3792 18.4152 12.2979 18.5134 12.2654 18.628L12.0214 19.7902C11.9563 20.1012 12.0539 20.3304 12.0539 20.3304L12.5094 21.5908C12.5582 21.7381 12.5582 21.9018 12.428 22.0819C12.2979 22.262 12.2491 22.4257 12.2491 22.4257C12.2491 22.4257 12.3304 23.8498 12.3467 24.1608C12.363 24.4718 12.2654 24.4882 12.2654 24.4882L14.6566 26.5998C14.8356 26.7635 15.0796 26.8453 15.3236 26.8453H16.5924C16.8364 26.8453 17.0642 26.7308 17.2106 26.518L18.7722 24.259C18.8373 24.1608 18.8861 24.0462 18.9186 23.9316L19.4554 21.6727C19.488 21.5253 19.5042 21.378 19.4717 21.2307L19 18.0878C18.9674 17.875 18.8535 17.6949 18.6909 17.5804L17.6986 16.8929C17.6498 17.122 17.3407 17.2202 17.3407 17.2202V17.2039ZM18.9837 17.4003L19.7157 17.0074C19.7157 17.0074 19.797 16.9747 19.8458 16.9583L25.0025 15.6488C25.1489 15.6161 25.2791 15.5178 25.3441 15.3869L26.3527 13.6026C26.434 13.4717 26.4503 13.308 26.4015 13.1607L25.6857 10.8526C25.6207 10.6398 25.4417 10.4925 25.2303 10.4597L21.9768 10.0505C21.7979 10.0341 21.6027 10.0996 21.4888 10.2306C21.4238 10.3124 21.3424 10.3779 21.196 10.3943L18.1866 10.9181C18.1866 10.9181 17.9263 10.9508 17.8125 11.2127L16.8527 13.4717C16.8527 13.4717 16.7714 13.5863 16.8527 13.8154L17.7311 16.5818C17.7311 16.5818 17.7474 16.6146 17.7637 16.6801C17.7799 16.8274 17.8613 16.9747 17.9914 17.0565L18.4469 17.3676C18.6258 17.4821 18.8373 17.4985 19.0325 17.4003H18.9837ZM25.0513 15.6161L25.0025 15.6324C25.0025 15.6324 19.9272 16.9256 19.8458 16.942C19.7645 16.9583 19.7157 16.9911 19.7157 16.9911C19.7157 16.9911 19.2277 17.253 18.9837 17.3839C18.7397 17.5149 18.5445 17.4494 18.5445 17.4494L18.6746 17.5476C18.9512 17.7441 18.9837 18.0551 18.9837 18.0551C18.9837 18.0551 19.4066 20.8869 19.4554 21.198C19.5042 21.509 19.4392 21.6399 19.4392 21.6399L19.1626 22.8021L22.2208 26.9763C22.351 27.1564 22.5299 27.2709 22.7414 27.3037L23.8638 27.5165C24.2542 27.582 24.6446 27.4019 24.8399 27.0581L26.8082 23.5388C26.9058 23.3587 26.9546 23.1623 26.9546 22.9658V21.9509C26.9546 21.6072 27.0684 21.2634 27.2799 20.9852L28.3535 19.5938C28.5 19.4137 28.5813 19.1845 28.5813 18.939V17.9896C28.5813 17.6786 28.4186 17.3839 28.1583 17.2039L25.7996 15.6979C25.5719 15.5506 25.2953 15.5342 25.0351 15.6324L25.0513 15.6161ZM14.982 27.5492L12.9974 31.707C12.851 32.018 13.0462 32.3945 13.3878 32.4436C15.1121 32.7055 19.7808 33.0984 24.0428 30.4793C24.2217 30.3647 24.3193 30.1519 24.2868 29.9555L23.9452 27.893C23.9126 27.6802 23.7337 27.5001 23.5222 27.4674L22.7739 27.3364C22.7739 27.3364 22.7251 27.3364 22.7089 27.3364C22.6113 27.3037 22.3672 27.2055 22.2208 27.009C22.0419 26.7635 19.1626 22.8349 19.1626 22.8349L18.9024 23.9316C18.9024 23.9316 18.9023 24.0626 18.7559 24.259C18.6258 24.4554 17.1943 26.518 17.1943 26.518C17.1943 26.518 17.0154 26.8453 16.5762 26.8453H16.1044C15.6164 26.8453 15.1609 27.1236 14.9657 27.5656L14.982 27.5492ZM1.88694 24.0135L6.16519 21.378V16.7619C6.16519 16.7619 6.19773 16.4345 6.47427 16.2872C6.47427 16.2872 6.27906 16.369 5.82358 16.2053C5.36811 16.0417 2.63523 15.0431 2.63523 15.0431C2.63523 15.0431 2.03335 14.814 1.88694 13.9955C1.74054 13.177 1.35013 10.8362 1.35013 10.8362C1.35013 10.8362 -1.57796 16.811 1.88694 23.9807V24.0135Z" stroke="white" stroke-width="0.786178" stroke-linejoin="round"></path><path id="Vector_9" d="M3.66011 25.1101C3.38357 24.8646 3.49744 24.1116 3.87158 23.6205C4.18066 23.2277 4.76628 22.8675 5.31936 23.0149C6.10018 23.1949 6.40926 24.1771 6.45806 24.7009C6.52313 25.3557 6.24658 25.5848 6.21405 26.5834C6.19778 27.1727 6.50686 27.5164 6.29539 27.7783C6.13271 27.9911 5.82364 28.0566 5.5959 28.0075C5.01028 27.8765 4.73374 26.5997 4.65241 25.9777C4.61987 25.7322 4.6036 25.4703 4.4084 25.3066C4.14813 25.0938 3.85532 25.3066 3.66011 25.1265V25.1101ZM10.0694 27.1563C10.2808 27.5492 10.72 27.631 11.3382 27.8111C12.8348 28.253 13.0462 28.6131 13.4692 28.4003C13.8271 28.2203 14.0548 27.7619 14.006 27.3855C13.9084 26.6979 12.8836 26.4197 12.4606 26.3051C11.5009 26.0432 10.1995 26.125 10.0043 26.6488C9.92295 26.8616 10.0531 27.0908 10.0856 27.1563H10.0694ZM7.79196 28.3349C7.79196 28.8587 7.43408 28.9896 7.46662 29.3007C7.51542 29.8081 8.58905 30.1519 8.97946 30.2664C9.58134 30.4629 10.4435 30.7248 10.8176 30.3974C11.2731 29.9882 10.8502 28.7605 9.97176 28.1712C9.17467 27.631 7.95463 27.5819 7.75943 27.8929C7.69436 27.9911 7.79196 28.0566 7.79196 28.3349ZM11.8262 2.32416C11.0454 2.61881 10.1832 3.37179 10.2646 4.07567C10.2971 4.28847 10.3784 4.28847 11.0454 5.31973C11.3707 5.84355 11.387 5.89265 11.5171 5.9745C12.0377 6.33462 12.851 6.10545 13.2902 5.85992C13.3716 5.81081 14.3151 5.28699 14.4615 4.17388C14.4777 4.01019 14.5916 3.07715 13.9572 2.50422C13.1926 1.81672 12.0377 2.25868 11.8425 2.32416H11.8262ZM16.0069 2.42238C15.5676 3.02804 15.8442 3.97745 16.3322 4.51764C17.1944 5.46705 18.6421 5.00872 18.7885 4.95961C19.0488 4.87776 19.9598 4.58312 20.0899 3.8465C20.22 3.19173 19.6344 2.63518 19.4718 2.48785C18.8536 1.89856 18.0565 1.88219 17.7474 1.86582C17.2594 1.86582 16.4298 1.83308 16.0231 2.40601L16.0069 2.42238ZM23.3108 4.35395C22.3998 4.10841 21.9444 3.99382 21.6841 4.20662C21.3262 4.51764 21.4075 5.31973 21.7004 5.84355C22.0908 6.56379 22.6438 6.43284 22.9855 7.10398C23.3433 7.82422 22.9041 8.36441 23.2783 8.72453C23.6361 9.06829 24.417 8.92096 24.8887 8.60995C25.6858 8.1025 25.7021 7.08761 25.7021 6.90755C25.7346 5.58164 24.5796 4.81228 24.5308 4.76318C24.2706 4.59948 23.9452 4.50127 23.3108 4.33758V4.35395ZM27.768 13.7663C28.3048 14.4538 29.1019 14.5356 29.2808 14.552C29.4272 14.552 30.0291 14.6175 30.1267 14.3883C30.1755 14.2901 30.1267 14.1919 29.8014 13.7335C29.2971 13.0296 29.2158 13.0296 29.0856 12.7514C29.0043 12.5713 28.8091 12.1948 28.8416 11.7201C28.8579 11.3436 29.0043 11.1799 28.8904 10.9999C28.7603 10.7871 28.4187 10.7216 28.1747 10.7871C27.8331 10.8853 27.6867 11.2454 27.5565 11.5728C27.4914 11.7365 27.2474 12.3749 27.4752 13.1115C27.5077 13.2424 27.5891 13.5043 27.8005 13.7663H27.768ZM30.0129 22.4747C30.0942 22.1309 30.1755 21.7708 30.0129 21.3779C29.8502 20.9851 29.4272 20.5431 29.0043 20.5922C28.6627 20.6413 28.4675 21.0015 28.1096 21.7217C27.8005 22.3274 27.6541 22.622 27.7355 23.0149C27.8005 23.3586 28.0608 23.8333 28.5 23.9315C28.8742 24.0134 29.1832 23.7842 29.3296 23.6696C29.8176 23.3259 29.9315 22.7857 30.0129 22.4747ZM26.4178 27.2054C26.8082 27.4346 27.3613 27.1072 27.6541 26.6979C28.0771 26.0923 28.0445 25.0938 27.6867 24.8973C27.5728 24.8319 27.4426 24.8646 27.28 24.8973C26.7269 25.061 26.0274 25.6831 26.0437 26.4197C26.0437 26.4524 26.0599 26.9762 26.4015 27.189L26.4178 27.2054Z" fill="url(#paint1_linear_817_62)"></path></g><defs><linearGradient id="paint0_linear_817_62" x1="0.195178" y1="18.8735" x2="28.6138" y2="18.8735" gradientUnits="userSpaceOnUse"><stop offset="0.01" stop-color="#949D4F"></stop><stop offset="0.09" stop-color="#8A964B"></stop><stop offset="0.23" stop-color="#728541"></stop><stop offset="0.4" stop-color="#4A6831"></stop><stop offset="0.52" stop-color="#2A5225"></stop><stop offset="1" stop-color="#0F9A8B"></stop></linearGradient><linearGradient id="paint1_linear_817_62" x1="3.49744" y1="16.2216" x2="30.143" y2="16.2216" gradientUnits="userSpaceOnUse"><stop offset="0.01" stop-color="#949D4F"></stop><stop offset="0.09" stop-color="#8A964B"></stop><stop offset="0.23" stop-color="#728541"></stop><stop offset="0.4" stop-color="#4A6831"></stop><stop offset="0.52" stop-color="#2A5225"></stop><stop offset="1" stop-color="#0F9A8B"></stop></linearGradient><clipPath id="clip0_817_62"><rect width="133" height="31.92" fill="white" transform="translate(0 0.900024)"></rect></clipPath></defs></svg>